<?xml version="1.0" encoding="utf-8"?>
<!-- Generator: Adobe Illustrator 23.0.1, SVG Export Plug-In . SVG Version: 6.00 Build 0)  -->
<svg version="1.1" id="Layer_1" xmlns="http://www.w3.org/2000/svg" xmlns:xlink="http://www.w3.org/1999/xlink" x="0px" y="0px"
	 viewBox="0 0 121.06 121.06" style="enable-background:new 0 0 121.06 121.06;" xml:space="preserve">
<style type="text/css">
	.st0{fill:#00A79D;}
</style>
<g>
	<g>
		<g>
			<path d="M28.29,45.78h7.15c1.1,0,2.08,0.14,2.92,0.41c0.84,0.27,1.54,0.65,2.11,1.12c0.56,0.47,0.99,1.03,1.28,1.67
				c0.29,0.64,0.44,1.33,0.44,2.07c0,0.71-0.14,1.32-0.41,1.85c-0.27,0.52-0.59,0.96-0.95,1.32c-0.36,0.35-0.73,0.62-1.09,0.79
				c-0.36,0.17-0.65,0.26-0.86,0.26c0.37,0.04,0.81,0.15,1.31,0.33c0.5,0.18,0.97,0.46,1.42,0.85c0.45,0.38,0.83,0.88,1.14,1.5
				c0.31,0.62,0.47,1.37,0.47,2.26c0,1.09-0.2,2-0.59,2.74c-0.4,0.74-0.94,1.33-1.64,1.79c-0.7,0.45-1.52,0.78-2.46,0.97
				c-0.95,0.19-1.97,0.29-3.07,0.29h-7.15V45.78z M35.25,53.83c0.4,0,0.78-0.04,1.15-0.12c0.37-0.08,0.71-0.22,1.01-0.42
				c0.3-0.2,0.54-0.45,0.72-0.76c0.18-0.3,0.27-0.69,0.27-1.15c0-0.46-0.09-0.85-0.28-1.15c-0.19-0.3-0.43-0.54-0.73-0.73
				c-0.3-0.18-0.64-0.31-1.01-0.38c-0.37-0.07-0.75-0.11-1.12-0.11h-3.18v4.81H35.25z M35.4,62.73c0.37,0,0.78-0.02,1.23-0.08
				c0.45-0.05,0.87-0.17,1.26-0.36c0.39-0.19,0.73-0.47,1-0.85c0.27-0.37,0.41-0.88,0.41-1.53c0-0.61-0.13-1.09-0.39-1.47
				c-0.26-0.37-0.58-0.67-0.97-0.88c-0.39-0.21-0.81-0.36-1.26-0.44c-0.46-0.08-0.88-0.12-1.28-0.12h-3.34v5.72H35.4z"/>
			<path d="M45.33,45.78h3.93v16.8h10.27v3.39h-14.2V45.78z"/>
			<path d="M60.55,45.78h3.93v12.08c0,0.77,0.08,1.46,0.23,2.07c0.16,0.62,0.41,1.14,0.76,1.57c0.35,0.43,0.82,0.77,1.4,1
				c0.58,0.23,1.3,0.35,2.15,0.35c0.85,0,1.57-0.12,2.15-0.35c0.58-0.23,1.05-0.56,1.4-1c0.35-0.43,0.61-0.96,0.76-1.57
				c0.16-0.62,0.23-1.31,0.23-2.07V45.78h3.93v12.74c0,1.13-0.19,2.18-0.56,3.15c-0.37,0.97-0.93,1.81-1.65,2.53
				c-0.73,0.72-1.62,1.28-2.67,1.7c-1.05,0.41-2.25,0.62-3.6,0.62c-1.35,0-2.55-0.21-3.6-0.62s-1.94-0.98-2.67-1.7
				c-0.73-0.72-1.28-1.56-1.65-2.53c-0.37-0.97-0.56-2.02-0.56-3.15V45.78z"/>
			<path d="M80.18,45.78h13.48v3.36h-9.55v4.75h7.02v3.39h-7.02v5.27h10.27v3.42h-14.2V45.78z"/>
		</g>
		<g>
			<path d="M28.29,71.8h5.94c0.88,0,1.63,0.12,2.26,0.37c0.63,0.24,1.14,0.57,1.53,0.98c0.39,0.41,0.68,0.88,0.86,1.41
				c0.18,0.53,0.27,1.1,0.27,1.69c0,0.51-0.08,0.98-0.24,1.44c-0.16,0.45-0.38,0.86-0.66,1.23c-0.28,0.37-0.61,0.68-1.01,0.93
				c-0.39,0.25-0.83,0.42-1.32,0.51c0.47,0.07,0.95,0.2,1.45,0.38c0.5,0.18,0.96,0.45,1.37,0.8c0.41,0.35,0.75,0.81,1.02,1.37
				c0.27,0.56,0.4,1.26,0.4,2.09c0,0.98-0.18,1.77-0.54,2.4c-0.36,0.62-0.85,1.12-1.47,1.49c-0.62,0.37-1.34,0.63-2.15,0.77
				c-0.82,0.14-1.68,0.22-2.59,0.22h-5.14V71.8z M33.51,79.85c0.48,0,0.98-0.06,1.49-0.19c0.51-0.13,0.97-0.33,1.38-0.62
				c0.41-0.29,0.75-0.65,1.02-1.1c0.27-0.44,0.4-0.98,0.4-1.61c0-0.72-0.13-1.3-0.39-1.73c-0.26-0.43-0.6-0.77-1.01-1
				c-0.41-0.23-0.87-0.39-1.38-0.46c-0.51-0.07-1.02-0.11-1.52-0.11h-3.93v6.83H33.51z M33.1,88.65c0.68,0,1.36-0.03,2.04-0.1
				c0.68-0.06,1.29-0.22,1.84-0.46c0.55-0.24,0.99-0.61,1.33-1.1c0.34-0.49,0.51-1.16,0.51-2c0-0.81-0.17-1.48-0.5-1.99
				c-0.33-0.51-0.75-0.91-1.26-1.19c-0.51-0.28-1.08-0.47-1.71-0.58c-0.63-0.11-1.24-0.16-1.83-0.16h-3.95v7.58H33.1z"/>
			<path d="M50.67,90.3c-1.29,0-2.48-0.24-3.56-0.73c-1.08-0.49-2.02-1.16-2.81-2c-0.79-0.85-1.41-1.85-1.86-2.99
				c-0.45-1.15-0.67-2.39-0.67-3.72c0-1.32,0.22-2.56,0.67-3.71c0.45-1.16,1.07-2.16,1.86-3.02c0.79-0.86,1.73-1.53,2.81-2.02
				c1.08-0.49,2.27-0.73,3.56-0.73c1.29,0,2.48,0.24,3.56,0.73c1.08,0.49,2.02,1.16,2.81,2.02c0.79,0.86,1.41,1.86,1.86,3.02
				c0.45,1.16,0.67,2.39,0.67,3.71c0,1.34-0.22,2.58-0.67,3.72c-0.45,1.15-1.07,2.15-1.86,2.99c-0.79,0.85-1.73,1.52-2.81,2
				C53.14,90.06,51.96,90.3,50.67,90.3z M50.67,89.08c1.13,0,2.16-0.21,3.09-0.64c0.93-0.42,1.73-1.01,2.38-1.76
				c0.65-0.75,1.16-1.63,1.52-2.63c0.36-1,0.54-2.07,0.54-3.21c0-1.14-0.18-2.21-0.54-3.22c-0.36-1.01-0.87-1.89-1.52-2.63
				c-0.66-0.74-1.45-1.33-2.38-1.76c-0.93-0.43-1.96-0.65-3.09-0.65c-1.13,0-2.16,0.22-3.09,0.65c-0.93,0.43-1.73,1.02-2.38,1.76
				c-0.65,0.74-1.16,1.62-1.52,2.63c-0.36,1.01-0.54,2.09-0.54,3.22c0,1.14,0.18,2.21,0.54,3.21c0.36,1,0.87,1.88,1.52,2.63
				c0.65,0.75,1.45,1.34,2.38,1.76C48.5,88.87,49.54,89.08,50.67,89.08z"/>
			<path d="M70.14,90.3c-1.29,0-2.48-0.24-3.56-0.73c-1.09-0.49-2.02-1.16-2.81-2c-0.79-0.85-1.41-1.85-1.86-2.99
				c-0.45-1.15-0.67-2.39-0.67-3.72c0-1.32,0.22-2.56,0.67-3.71c0.45-1.16,1.07-2.16,1.86-3.02c0.79-0.86,1.73-1.53,2.81-2.02
				c1.08-0.49,2.27-0.73,3.56-0.73c1.29,0,2.48,0.24,3.56,0.73c1.08,0.49,2.02,1.16,2.81,2.02c0.79,0.86,1.41,1.86,1.86,3.02
				c0.45,1.16,0.67,2.39,0.67,3.71c0,1.34-0.22,2.58-0.67,3.72c-0.45,1.15-1.07,2.15-1.86,2.99c-0.79,0.85-1.73,1.52-2.81,2
				C72.62,90.06,71.43,90.3,70.14,90.3z M70.14,89.08c1.13,0,2.16-0.21,3.09-0.64c0.93-0.42,1.73-1.01,2.38-1.76
				c0.65-0.75,1.16-1.63,1.52-2.63c0.36-1,0.54-2.07,0.54-3.21c0-1.14-0.18-2.21-0.54-3.22c-0.36-1.01-0.87-1.89-1.52-2.63
				c-0.65-0.74-1.45-1.33-2.38-1.76c-0.93-0.43-1.96-0.65-3.09-0.65c-1.13,0-2.16,0.22-3.09,0.65c-0.93,0.43-1.73,1.02-2.38,1.76
				c-0.66,0.74-1.16,1.62-1.52,2.63c-0.36,1.01-0.54,2.09-0.54,3.22c0,1.14,0.18,2.21,0.54,3.21c0.36,1,0.86,1.88,1.52,2.63
				c0.65,0.75,1.45,1.34,2.38,1.76C67.98,88.87,69.01,89.08,70.14,89.08z"/>
			<path d="M81.51,71.8h1.29v9.43l8.82-9.43h1.59l-6.78,7.29l7.69,10.78h-1.53l-7.1-9.81l-2.69,2.9v6.91h-1.29V71.8z"/>
		</g>
		<g>
			<path d="M30.15,33.53h-1.86v-0.85h1.86v-3.07h0.91v3.07h3.07v0.85h-3.07v5.37c0,0.55,0.04,0.99,0.12,1.32
				c0.08,0.33,0.2,0.58,0.35,0.75c0.15,0.17,0.33,0.28,0.53,0.33c0.2,0.05,0.42,0.08,0.67,0.08c0.34,0,0.63-0.06,0.87-0.18
				c0.24-0.12,0.48-0.33,0.73-0.63l0.56,0.54c-0.27,0.35-0.58,0.62-0.92,0.81c-0.34,0.19-0.79,0.28-1.34,0.28
				c-0.36,0-0.7-0.04-1.01-0.13c-0.31-0.09-0.57-0.25-0.79-0.48c-0.22-0.23-0.38-0.55-0.5-0.95c-0.12-0.4-0.18-0.9-0.18-1.52V33.53z
				"/>
			<path d="M35.47,28.51h0.91v6.03c0.11-0.2,0.26-0.43,0.45-0.68c0.19-0.25,0.44-0.48,0.74-0.69c0.3-0.21,0.64-0.38,1.03-0.52
				c0.39-0.14,0.84-0.21,1.35-0.21c0.66,0,1.21,0.09,1.66,0.28c0.45,0.19,0.82,0.46,1.1,0.82c0.28,0.36,0.48,0.79,0.61,1.29
				c0.12,0.5,0.18,1.07,0.18,1.69v5.45H42.6v-5.15c0-0.69-0.06-1.26-0.18-1.72c-0.12-0.46-0.3-0.82-0.54-1.09
				c-0.24-0.27-0.52-0.46-0.87-0.57c-0.34-0.11-0.74-0.16-1.18-0.16c-0.59,0-1.1,0.12-1.53,0.36c-0.43,0.24-0.79,0.55-1.07,0.93
				c-0.28,0.38-0.49,0.79-0.64,1.25c-0.14,0.46-0.21,0.91-0.21,1.35v4.78h-0.91V28.51z"/>
			<path d="M53.25,40.58c-0.4,0.51-0.95,0.91-1.65,1.2c-0.69,0.29-1.4,0.43-2.13,0.43c-0.69,0-1.32-0.12-1.91-0.35
				c-0.58-0.24-1.09-0.57-1.5-1c-0.42-0.43-0.74-0.95-0.98-1.54c-0.24-0.6-0.35-1.26-0.35-1.99c0-0.67,0.11-1.3,0.33-1.9
				c0.22-0.59,0.53-1.11,0.92-1.55c0.39-0.44,0.86-0.79,1.41-1.05c0.55-0.26,1.16-0.38,1.82-0.38c0.63,0,1.22,0.11,1.77,0.33
				c0.54,0.22,1.02,0.55,1.41,0.98c0.4,0.43,0.71,0.97,0.93,1.6c0.22,0.64,0.33,1.38,0.33,2.21h-7.91c0.01,0.52,0.11,1.02,0.3,1.48
				c0.19,0.46,0.44,0.87,0.77,1.21c0.32,0.34,0.71,0.61,1.16,0.81c0.45,0.2,0.95,0.29,1.5,0.29c0.28,0,0.58-0.03,0.88-0.09
				c0.3-0.06,0.6-0.15,0.88-0.27c0.28-0.12,0.54-0.26,0.78-0.42c0.24-0.16,0.43-0.34,0.6-0.54L53.25,40.58z M52.67,36.78
				c-0.12-1.14-0.48-2.01-1.09-2.6c-0.61-0.59-1.39-0.89-2.36-0.89c-0.5,0-0.95,0.09-1.36,0.27c-0.41,0.18-0.76,0.43-1.06,0.75
				c-0.3,0.32-0.53,0.69-0.72,1.11c-0.18,0.42-0.29,0.88-0.31,1.36H52.67z"/>
			<path d="M63.97,41.97c-0.01-0.12-0.02-0.26-0.02-0.4c-0.01-0.13-0.02-0.3-0.02-0.48c0-0.19,0-0.41,0-0.67
				c-0.24,0.35-0.51,0.64-0.8,0.88c-0.29,0.24-0.59,0.42-0.91,0.56c-0.32,0.13-0.63,0.23-0.93,0.28c-0.3,0.05-0.58,0.08-0.84,0.08
				c-0.39,0-0.78-0.04-1.17-0.12c-0.39-0.08-0.74-0.23-1.05-0.43c-0.31-0.21-0.56-0.49-0.76-0.85c-0.2-0.36-0.29-0.81-0.29-1.36
				c0-0.44,0.07-0.86,0.22-1.26c0.15-0.4,0.38-0.74,0.71-1.03c0.32-0.29,0.74-0.52,1.25-0.69c0.51-0.17,1.13-0.25,1.86-0.25
				c0.56,0,1.07,0.02,1.51,0.06c0.44,0.04,0.82,0.09,1.13,0.14v-0.52c0-0.51-0.06-0.93-0.18-1.27c-0.12-0.34-0.3-0.61-0.54-0.81
				c-0.24-0.2-0.54-0.34-0.89-0.42c-0.35-0.08-0.75-0.12-1.21-0.12c-0.77,0-1.38,0.11-1.83,0.33c-0.45,0.22-0.8,0.43-1.04,0.64
				l-0.48-0.63c0.26-0.24,0.67-0.5,1.24-0.77c0.57-0.27,1.27-0.4,2.09-0.4c1.2,0,2.12,0.26,2.77,0.77c0.65,0.51,0.98,1.36,0.98,2.54
				v4.28c0,0.27,0,0.52,0,0.76c0,0.24,0.01,0.44,0.02,0.62c0.01,0.22,0.03,0.4,0.04,0.56H63.97z M63.89,37.23
				c-0.28-0.07-0.64-0.12-1.06-0.17c-0.42-0.05-0.97-0.07-1.62-0.07c-0.69,0-1.23,0.08-1.63,0.25c-0.4,0.17-0.71,0.38-0.92,0.63
				c-0.21,0.25-0.34,0.52-0.4,0.81c-0.06,0.29-0.09,0.55-0.09,0.78c0,0.67,0.23,1.16,0.68,1.47c0.45,0.31,1.03,0.46,1.73,0.46
				c0.46,0,0.89-0.08,1.29-0.24c0.4-0.16,0.76-0.38,1.06-0.65c0.3-0.27,0.54-0.58,0.72-0.92c0.17-0.34,0.26-0.69,0.26-1.04V37.23z"
				/>
			<path d="M66.57,34.64c0-0.26,0-0.47,0-0.66c0-0.18,0-0.34,0-0.48c0-0.14,0-0.28-0.01-0.4c-0.01-0.13-0.02-0.27-0.03-0.41h0.85
				c0.01,0.15,0.02,0.29,0.03,0.42c0.01,0.13,0.01,0.28,0.02,0.43c0.01,0.15,0.01,0.33,0.01,0.51c0,0.19,0,0.41,0,0.67
				c0.11-0.2,0.25-0.43,0.43-0.68c0.18-0.25,0.41-0.48,0.7-0.7c0.28-0.22,0.61-0.4,0.99-0.55c0.38-0.15,0.81-0.22,1.31-0.22
				c0.3,0,0.55,0.05,0.77,0.14l-0.26,0.87c-0.09-0.04-0.21-0.07-0.33-0.08c-0.13-0.01-0.25-0.02-0.35-0.02
				c-0.48,0-0.92,0.11-1.31,0.32c-0.39,0.22-0.73,0.5-1.01,0.85c-0.28,0.35-0.5,0.75-0.66,1.2c-0.15,0.45-0.23,0.91-0.23,1.36v4.74
				h-0.91V34.64z"/>
			<path d="M73.15,33.53h-1.86v-0.85h1.86v-3.07h0.91v3.07h3.07v0.85h-3.07v5.37c0,0.55,0.04,0.99,0.12,1.32
				c0.08,0.33,0.2,0.58,0.35,0.75c0.15,0.17,0.33,0.28,0.53,0.33c0.2,0.05,0.42,0.08,0.67,0.08c0.34,0,0.63-0.06,0.87-0.18
				c0.24-0.12,0.48-0.33,0.73-0.63l0.56,0.54c-0.27,0.35-0.58,0.62-0.92,0.81c-0.34,0.19-0.79,0.28-1.34,0.28
				c-0.36,0-0.7-0.04-1.01-0.13c-0.31-0.09-0.57-0.25-0.79-0.48c-0.22-0.23-0.38-0.55-0.5-0.95c-0.12-0.4-0.18-0.9-0.18-1.52V33.53z
				"/>
			<path d="M78.34,29.42h1.27v1.31h-1.27V29.42z M78.52,32.69h0.91v9.28h-0.91V32.69z"/>
			<path d="M81.26,40.15c0.39,0.39,0.84,0.69,1.34,0.9c0.5,0.21,1.1,0.31,1.79,0.31c0.38,0,0.73-0.04,1.07-0.11
				c0.34-0.07,0.63-0.18,0.89-0.32c0.26-0.14,0.46-0.32,0.6-0.53c0.15-0.21,0.22-0.47,0.22-0.77c0-0.34-0.07-0.61-0.2-0.83
				c-0.13-0.21-0.33-0.39-0.6-0.53c-0.26-0.14-0.59-0.26-0.99-0.36c-0.4-0.1-0.85-0.21-1.36-0.33c-0.43-0.09-0.82-0.21-1.18-0.33
				c-0.36-0.13-0.66-0.29-0.92-0.47c-0.26-0.19-0.46-0.43-0.61-0.72c-0.15-0.29-0.22-0.65-0.22-1.08c0-0.42,0.09-0.78,0.28-1.1
				s0.44-0.58,0.76-0.8c0.32-0.21,0.68-0.37,1.09-0.47c0.41-0.1,0.84-0.15,1.28-0.15c0.73,0,1.37,0.13,1.93,0.4
				c0.56,0.27,1.01,0.61,1.36,1.03l-0.63,0.57c-0.32-0.35-0.7-0.63-1.12-0.85c-0.42-0.22-0.93-0.32-1.52-0.32
				c-0.3,0-0.59,0.02-0.89,0.07c-0.3,0.05-0.57,0.13-0.81,0.26c-0.24,0.13-0.44,0.3-0.59,0.52c-0.15,0.22-0.22,0.51-0.22,0.88
				c0,0.3,0.08,0.55,0.25,0.75c0.17,0.2,0.39,0.37,0.66,0.5c0.27,0.13,0.58,0.25,0.93,0.33c0.35,0.09,0.7,0.17,1.05,0.25
				c0.38,0.08,0.76,0.18,1.14,0.3c0.38,0.12,0.73,0.28,1.05,0.47c0.32,0.2,0.57,0.44,0.77,0.75c0.19,0.3,0.29,0.68,0.29,1.14
				c0,0.47-0.11,0.87-0.32,1.21c-0.22,0.34-0.5,0.62-0.85,0.84c-0.35,0.22-0.75,0.39-1.19,0.49c-0.44,0.11-0.89,0.16-1.33,0.16
				c-0.88,0-1.62-0.13-2.23-0.38c-0.61-0.26-1.13-0.6-1.56-1.03L81.26,40.15z"/>
			<path d="M90.38,33.53h-1.86v-0.85h1.86v-3.07h0.91v3.07h3.07v0.85h-3.07v5.37c0,0.55,0.04,0.99,0.12,1.32
				c0.08,0.33,0.2,0.58,0.35,0.75c0.15,0.17,0.33,0.28,0.53,0.33c0.2,0.05,0.42,0.08,0.67,0.08c0.34,0,0.63-0.06,0.87-0.18
				c0.24-0.12,0.48-0.33,0.73-0.63l0.56,0.54c-0.27,0.35-0.58,0.62-0.92,0.81c-0.34,0.19-0.79,0.28-1.34,0.28
				c-0.36,0-0.7-0.04-1.01-0.13c-0.31-0.09-0.57-0.25-0.79-0.48c-0.22-0.23-0.38-0.55-0.5-0.95c-0.12-0.4-0.18-0.9-0.18-1.52V33.53z
				"/>
		</g>
	</g>
	<g>
		<g>
			<polygon points="107.06,14 100.18,20.87 20.88,20.87 14,14 			"/>
			<polygon points="14,107.06 20.88,100.18 100.18,100.18 107.06,107.06 			"/>
		</g>
		<path class="st0" d="M0,0h121.06v121.06H0V0z M107.06,107.06V14H14v93.06H107.06"/>
	</g>
</g>
</svg>
